<svg xmlns="http://www.w3.org/2000/svg" xmlns:xlink="http://www.w3.org/1999/xlink" width="500" zoomAndPan="magnify" viewBox="0 0 375 374.999991" height="500" preserveAspectRatio="xMidYMid meet" version="1.0"><defs><g/></defs><g fill="#000000" fill-opacity="1"><g transform="translate(-55.71148, 314.999979)"><g><path d="M 97.234375 -205.578125 C 89.242188 -205.578125 85.25 -211.9375 85.25 -224.65625 C 85.25 -237.09375 89.539062 -243.3125 98.125 -243.3125 L 257.96875 -243.3125 C 269.507812 -243.3125 275.28125 -236.648438 275.28125 -223.328125 L 275.28125 -112.78125 C 275.28125 -83.46875 263.882812 -68.8125 241.09375 -68.8125 L 227.328125 -68.8125 L 227.328125 -205.578125 Z M 97.234375 -205.578125 "/></g></g></g><g fill="#000000" fill-opacity="1"><g transform="translate(187.499992, 317.537478)"><g><path d="M 51.25 -108.34375 C 47.03125 -108.34375 44.921875 -111.695312 44.921875 -118.40625 C 44.921875 -124.957031 47.1875 -128.234375 51.71875 -128.234375 L 135.953125 -128.234375 C 142.035156 -128.234375 145.078125 -124.722656 145.078125 -117.703125 L 145.078125 -59.4375 C 145.078125 -43.988281 139.070312 -36.265625 127.0625 -36.265625 L 119.8125 -36.265625 L 119.8125 -108.34375 Z M 51.25 -108.34375 "/></g></g></g></svg>